<svg width="138" height="25" viewBox="0 0 138 25" fill="none" xmlns="http://www.w3.org/2000/svg">
<g id="logo 2">
<path id="Vector" d="M7.70249 20.0575C7.52263 19.9262 7.3901 19.7482 7.32383 19.542C7.25283 19.3358 7.25283 19.1108 7.3191 18.9046L7.54156 18.0142C7.57943 17.8595 7.65043 17.7096 7.74983 17.583C7.84923 17.4565 7.97703 17.3487 8.11903 17.2737L8.83849 16.9035C9.27868 16.6786 9.62895 16.313 9.83721 15.8631C10.0455 15.4179 10.0975 14.9165 9.98394 14.4385L9.97448 14.3916C9.84194 13.8573 9.51061 13.3887 9.05148 13.0794C8.58762 12.7748 8.02436 12.6482 7.47056 12.7279L6.67064 12.8404C6.50497 12.8638 6.33931 12.8498 6.18311 12.8076C6.02218 12.7607 5.87544 12.6857 5.75238 12.578L5.04238 11.9875C4.86725 11.8562 4.73945 11.6782 4.66845 11.472C4.60219 11.2658 4.60219 11.0408 4.66845 10.8346C4.81992 10.38 4.81519 9.88326 4.65425 9.42868C4.49805 8.9741 4.19512 8.58513 3.78806 8.31331C3.38573 8.04619 2.90293 7.91497 2.41541 7.9384C1.92788 7.96652 1.46401 8.14929 1.09008 8.45859C0.720886 8.7679 0.460555 9.18499 0.351689 9.65363C0.23809 10.1223 0.290156 10.6143 0.488955 11.0549C0.687753 11.4954 1.02382 11.8562 1.44981 12.0906C1.87581 12.3202 2.36807 12.4092 2.85087 12.3436C2.93133 12.3296 3.00707 12.3155 3.0828 12.2968L3.29106 12.2593C3.4662 12.2218 3.64133 12.2312 3.81173 12.2733C3.98213 12.3155 4.14306 12.3999 4.27559 12.5123L5.23645 13.3325C5.38318 13.4637 5.49678 13.623 5.56305 13.8058C5.63405 13.9839 5.65298 14.1807 5.62458 14.3728L5.60091 14.5181L5.57725 14.6447V14.654C5.54885 14.9165 5.56305 15.1836 5.62931 15.4413C5.62931 15.4601 5.62931 15.4742 5.63878 15.4882V15.5023C5.73344 15.8538 5.91331 16.1724 6.15944 16.4396C6.19257 16.4724 6.22097 16.5005 6.25411 16.5286L6.35824 16.6317C6.4955 16.7723 6.5949 16.941 6.6517 17.1285C6.70377 17.3159 6.7085 17.5174 6.66117 17.7049L6.36771 18.9234C6.32984 19.0921 6.24937 19.2514 6.13577 19.3826C6.02691 19.5185 5.88491 19.6263 5.72398 19.6966L5.54411 19.781C5.47311 19.8091 5.39738 19.8419 5.33111 19.8794C4.99978 20.0481 4.72052 20.2965 4.51699 20.6011C4.17619 21.0838 4.04366 21.679 4.14779 22.2554C4.25192 22.8318 4.58799 23.3473 5.07552 23.6801C5.56305 24.0175 6.16417 24.1487 6.7511 24.0456C7.3333 23.9425 7.85396 23.6145 8.19476 23.1318C8.39356 22.8599 8.53082 22.546 8.58762 22.2132C8.60182 22.1382 8.61602 22.0633 8.62075 21.9883L8.64442 21.7914C8.63022 21.454 8.54029 21.1166 8.37462 20.8167C8.21369 20.5167 7.98176 20.2543 7.70249 20.0575Z" fill="#C8C9CA"/>
<path id="Vector_2" d="M24.8276 9.47088C24.7092 9.11471 24.501 8.79135 24.2217 8.53828C23.9472 8.28053 23.6064 8.09776 23.2372 8.00872C22.868 7.91968 22.4799 7.91967 22.1154 8.01809C21.7462 8.1165 21.4101 8.30396 21.1356 8.5664C21.0788 8.61795 21.022 8.6695 20.9699 8.73042L20.8327 8.87102C20.7143 9.00224 20.5676 9.10065 20.4067 9.16158C20.241 9.22718 20.0659 9.2553 19.8907 9.24124L18.6222 9.13814C18.4282 9.12408 18.2388 9.05847 18.0732 8.95069C17.9075 8.83821 17.775 8.69293 17.685 8.51954L17.6188 8.38832C17.5998 8.35083 17.5809 8.31333 17.5572 8.27584V8.26647C17.4247 8.03215 17.2543 7.82595 17.046 7.65724L17.0129 7.62912L16.9987 7.61506C16.7147 7.38542 16.3786 7.23077 16.0189 7.16048H16.0094L15.8816 7.13704L15.7302 7.12767C15.5361 7.09487 15.3515 7.0152 15.2 6.89804C15.0438 6.77619 14.9208 6.61685 14.845 6.43877L14.3575 5.2906C14.2865 5.12657 14.2581 4.95318 14.2676 4.77978C14.2771 4.60638 14.3291 4.43767 14.4143 4.2877L14.5137 4.12368C14.5563 4.05338 14.5942 3.98777 14.6273 3.91748C14.7788 3.61755 14.8592 3.28481 14.8592 2.94739C14.8403 2.37096 14.5989 1.82265 14.1777 1.41962C13.7611 1.02127 13.1979 0.796326 12.6157 0.796326C12.0287 0.796326 11.4702 1.02127 11.0489 1.41962C10.6324 1.82265 10.3863 2.37096 10.3721 2.94739C10.3721 3.28481 10.4478 3.61755 10.5993 3.91748C10.6372 3.98777 10.675 4.05338 10.7176 4.12368L10.8123 4.2877C10.9022 4.43767 10.9495 4.60638 10.959 4.77978C10.9732 4.95318 10.9401 5.12657 10.8738 5.2906L10.3863 6.43877C10.3106 6.61685 10.1875 6.77619 10.036 6.89335C9.87982 7.0152 9.69996 7.09487 9.50589 7.12767L9.35916 7.1511L9.23136 7.16985H9.21716C8.9521 7.2214 8.70123 7.3245 8.47404 7.46509L8.4409 7.48384C8.43144 7.48852 8.4267 7.49321 8.42197 7.4979C8.11431 7.69473 7.85871 7.96185 7.67884 8.28053V8.2899C7.65991 8.32739 7.64098 8.36488 7.62204 8.40238C6.71325 10.3285 8.70123 11.397 8.9521 11.4626C9.25976 11.5563 9.58163 11.5845 9.90349 11.547C10.2206 11.5095 10.5283 11.4111 10.8075 11.2517L10.8501 11.2283C11.3235 10.9377 11.669 10.4831 11.8205 9.94889C11.9719 9.41933 11.9199 8.85227 11.669 8.3602L11.3045 7.63849C11.2335 7.49321 11.1909 7.33387 11.1862 7.16985C11.1815 7.00582 11.2099 6.84649 11.2714 6.69652L11.6169 5.84828C11.6879 5.64208 11.8205 5.46399 12.0003 5.33746C12.1755 5.21093 12.3932 5.14532 12.6109 5.14532C12.8287 5.14532 13.0417 5.21093 13.2215 5.33746C13.4014 5.46399 13.5339 5.64208 13.6049 5.84828L13.9552 6.69652C14.0167 6.84649 14.0499 7.00582 14.0404 7.16985C14.0357 7.33387 13.9978 7.49321 13.9221 7.63849L13.5671 8.35551C13.3446 8.79603 13.2783 9.29748 13.3777 9.78018C13.4771 10.2629 13.7375 10.6987 14.1161 11.0174L14.1493 11.0502C14.4427 11.2939 14.7883 11.4579 15.1622 11.5282C15.5361 11.5985 15.9242 11.5751 16.284 11.4626C16.6153 11.3548 16.9182 11.1767 17.1644 10.933L17.7466 10.3754C17.8649 10.2629 18.0069 10.1738 18.1584 10.1129C18.3146 10.0567 18.4802 10.0332 18.6459 10.0473L19.5689 10.1176C19.7913 10.1176 20.0043 10.1879 20.1795 10.3144C20.3546 10.4457 20.4871 10.6237 20.5581 10.8299C20.7001 11.2564 21.0599 12.0859 22.3663 12.3343C22.7449 12.3858 23.1283 12.3436 23.4833 12.2077C23.8383 12.0765 24.1554 11.8516 24.4016 11.5657C24.643 11.2798 24.8134 10.933 24.8844 10.5675C24.9554 10.1973 24.9317 9.81767 24.8181 9.45682L24.8276 9.47088Z" fill="#EC1D35"/>
<path id="Vector_3" d="M16.7335 12.8123C16.4306 12.9154 16.1513 13.0794 15.9147 13.295C15.678 13.5105 15.4887 13.7683 15.3609 14.0589C15.3609 14.0729 15.3467 14.087 15.3419 14.1057C15.1337 14.6165 15.1242 15.1836 15.3183 15.6991C15.5123 16.2146 15.8957 16.6458 16.388 16.8988L17.1074 17.2691C17.2494 17.344 17.3772 17.4518 17.4814 17.5784C17.5808 17.7049 17.6518 17.8549 17.6944 18.0142L17.9121 18.9046C17.9784 19.1108 17.9784 19.3311 17.9121 19.5373C17.8411 19.7435 17.7086 19.9262 17.5334 20.0528C17.3536 20.1793 17.1406 20.2496 16.9181 20.2496C16.7004 20.2496 16.4874 20.1793 16.3075 20.0528L15.5171 19.5748C15.3751 19.4904 15.2567 19.3779 15.1621 19.242C15.0674 19.1108 15.0059 18.9562 14.9775 18.7968L14.8402 18.0095C14.7597 17.5268 14.5136 17.0816 14.1491 16.7442C13.7799 16.4114 13.3113 16.2099 12.8144 16.1677H12.767C12.2085 16.1303 11.6547 16.2943 11.2192 16.6364C10.779 16.9785 10.4856 17.4706 10.3956 18.0142C10.0785 19.8841 11.7825 20.498 12.4452 20.5777H12.5067C12.8712 20.6011 13.2356 20.5308 13.5669 20.3808H13.5811L13.6995 20.3246L13.8273 20.259C14.0071 20.1699 14.2012 20.1278 14.4 20.1371C14.5941 20.1418 14.7881 20.1981 14.9585 20.3012L16.0425 20.9573C16.1892 21.0463 16.317 21.1728 16.4117 21.3181C16.5063 21.4634 16.5679 21.6321 16.5868 21.8008L16.6105 21.9976C16.6152 22.0726 16.6247 22.1523 16.6389 22.2273C16.7051 22.5975 16.8661 22.949 17.1027 23.2395C17.3441 23.5301 17.6518 23.7597 18.0068 23.9003C18.357 24.0409 18.7452 24.0925 19.1191 24.0456C19.4978 24.0034 19.8575 23.8628 20.1699 23.6426C20.4776 23.4223 20.7237 23.1271 20.8846 22.785C21.0455 22.4429 21.1118 22.0679 21.0882 21.693C21.0597 21.3181 20.9367 20.9573 20.7284 20.6433C20.5202 20.3246 20.2362 20.0668 19.9001 19.8934C19.8291 19.856 19.7581 19.8231 19.6824 19.795L19.5025 19.7154C19.3416 19.6404 19.2043 19.5326 19.0907 19.4014C18.9771 19.2655 18.9014 19.1061 18.8588 18.9374L18.5653 17.7189C18.5227 17.5315 18.5274 17.3347 18.5795 17.1472C18.6316 16.9597 18.731 16.7864 18.873 16.6504L18.9771 16.5427C19.0055 16.5145 19.0386 16.4864 19.067 16.4536V16.4442C19.2516 16.2474 19.3984 16.0225 19.4978 15.7788L19.512 15.7413V15.7225C19.6445 15.3851 19.6918 15.0196 19.6492 14.6634V14.6493C19.351 12.5077 17.2163 12.6342 16.7335 12.8123Z" fill="#402FFF"/>
<path id="Vector_4" d="M35.5343 20.4465V18.6984H33.3665C32.8742 18.6891 32.3914 18.5485 31.9701 18.3001C31.5016 18.0283 30.678 17.1285 30.4224 16.7723C30.1715 16.388 30.0437 15.9335 30.0626 15.4789V9.18033C30.0437 8.71169 30.1715 8.25711 30.4224 7.86345C30.678 7.5354 31.5016 6.63092 31.9701 6.35442C32.3914 6.10604 32.8742 5.97014 33.3665 5.96076H35.5343V4.26428H37.8868V5.95608H39.9978C40.4901 5.97014 40.9729 6.10604 41.3989 6.35442C41.8627 6.62623 42.6721 7.52603 42.9467 7.85876C43.1975 8.25242 43.3253 8.71169 43.3064 9.17564V15.4742C43.3206 15.9335 43.1975 16.3833 42.9467 16.7723C42.6721 17.1285 41.8627 18.0283 41.3989 18.2954C40.9729 18.5438 40.4901 18.6797 39.9978 18.6938H37.8868V20.4418L35.5343 20.4465ZM33.4185 16.2521H35.5343V8.40239H33.4422C33.144 8.63202 32.8789 8.89915 32.6565 9.19908V15.4789C32.8742 15.7694 33.1298 16.0319 33.4185 16.2521ZM40.722 9.18502C40.5185 8.8804 40.2581 8.61796 39.9552 8.40707H37.8868V16.2568H39.9363C40.225 16.0272 40.4853 15.7647 40.722 15.4836V9.18502Z" fill="#1B1C21"/>
<path id="Vector_5" d="M54.5148 9.72393C54.2829 9.18031 53.89 8.72573 53.3883 8.40705H49.6253C49.3035 8.64137 49.0242 8.92724 48.7923 9.24592V15.4788C49.0053 15.7975 49.2893 16.0646 49.6253 16.2521H53.4309C53.89 15.9241 54.2592 15.4976 54.5148 15.0008L56.9288 15.5866C56.7537 16.0646 56.5123 16.5145 56.2093 16.9223C55.6981 17.6346 54.7089 18.7031 53.412 18.7031H49.5165C49.0242 18.689 48.5414 18.5531 48.1201 18.3048C47.6752 18.0329 46.8658 17.1941 46.5724 16.8004C46.331 16.4068 46.2079 15.9569 46.2079 15.5023V9.15688C46.189 8.69761 46.3168 8.24302 46.5724 7.85874C46.8232 7.53069 47.6515 6.64496 48.1391 6.3544C48.5603 6.11539 49.0337 5.97949 49.5165 5.95605H53.412C54.7042 5.95605 55.6839 7.02456 56.1904 7.71346C56.4886 8.12118 56.7347 8.57107 56.9099 9.0444L54.5148 9.72393Z" fill="#1B1C21"/>
<path id="Vector_6" d="M67.4366 18.5953V8.48673H62.0785V18.5953H59.4941V6.74338C59.4941 6.56061 59.5699 6.38253 59.7024 6.25131C59.8349 6.12009 60.0148 6.04979 60.2041 6.0451H69.3157C69.5051 6.04979 69.6849 6.12009 69.8174 6.25131C69.95 6.38253 70.021 6.56061 70.0257 6.74338V18.6047L67.4366 18.5953Z" fill="#1B1C21"/>
<g id="&#208;&#152;&#208;&#189;&#209;&#132;&#208;&#190;&#209;&#128;&#208;&#188;&#208;&#176;&#209;&#134;&#208;&#184;&#208;&#190;&#208;&#189;&#208;&#189;&#209;&#139;&#208;&#185; &#208;&#191;&#208;&#190;&#209;&#128;&#209;&#130;&#208;&#176;&#208;&#187;">
<path d="M75.3271 11.1064V5.63268H75.9103V9.0069C75.9103 9.17186 75.9052 9.34432 75.8951 9.52428C75.8901 9.70424 75.8825 9.8717 75.8724 10.0267C75.8674 10.1816 75.8623 10.3116 75.8573 10.4166L77.6218 5.63268H78.4322V11.1064H77.849V7.73219C77.849 7.58723 77.8516 7.42726 77.8566 7.25231C77.8667 7.07735 77.8768 6.90738 77.8869 6.74242C77.897 6.57746 77.9071 6.43749 77.9172 6.32252L76.1299 11.1064H75.3271Z" fill="black"/>
<path d="M79.8909 11.1064V6.98237H80.4967V8.73696H82.3446V6.98237H82.9505V11.1064H82.3446V9.27684H80.4967V11.1064H79.8909Z" fill="black"/>
<path d="M85.689 12.4561V11.1064C85.2043 11.1064 84.8232 10.9714 84.5455 10.7015C84.2678 10.4316 84.1289 10.0617 84.1289 9.59176V8.48202C84.1289 8.01713 84.2678 7.65221 84.5455 7.38727C84.8282 7.11734 85.2094 6.98237 85.689 6.98237V5.63268H86.2343V6.98237C86.719 6.98237 87.1002 7.11734 87.3779 7.38727C87.6556 7.65221 87.7944 8.01713 87.7944 8.48202V9.59176C87.7944 10.0617 87.6556 10.4316 87.3779 10.7015C87.1002 10.9714 86.719 11.1064 86.2343 11.1064V12.4561H85.689ZM85.7042 10.6265V7.46226C85.3861 7.46226 85.1362 7.55224 84.9544 7.73219C84.7777 7.90715 84.6894 8.1571 84.6894 8.48202V9.59176C84.6894 9.91669 84.7777 10.1716 84.9544 10.3566C85.1362 10.5365 85.3861 10.6265 85.7042 10.6265ZM86.2192 10.6265C86.5423 10.6265 86.7922 10.5365 86.9689 10.3566C87.1456 10.1716 87.234 9.91669 87.234 9.59176V8.48202C87.234 8.1571 87.1456 7.90715 86.9689 7.73219C86.7922 7.55224 86.5423 7.46226 86.2192 7.46226V10.6265Z" fill="black"/>
<path d="M90.5027 11.1739C90.1796 11.1739 89.8993 11.1114 89.662 10.9864C89.4248 10.8615 89.2405 10.6815 89.1092 10.4466C88.9779 10.2116 88.9123 9.93418 88.9123 9.61426V8.47452C88.9123 8.1496 88.9779 7.87216 89.1092 7.64221C89.2405 7.40727 89.4248 7.22731 89.662 7.10234C89.8993 6.97737 90.1796 6.91488 90.5027 6.91488C90.8258 6.91488 91.106 6.97737 91.3433 7.10234C91.5806 7.22731 91.7649 7.40727 91.8962 7.64221C92.0274 7.87216 92.0931 8.1471 92.0931 8.46702V9.61426C92.0931 9.93418 92.0274 10.2116 91.8962 10.4466C91.7649 10.6815 91.5806 10.8615 91.3433 10.9864C91.106 11.1114 90.8258 11.1739 90.5027 11.1739ZM90.5027 10.6415C90.8157 10.6415 91.0581 10.554 91.2297 10.3791C91.4014 10.2041 91.4872 9.94918 91.4872 9.61426V8.47452C91.4872 8.1396 91.3988 7.88466 91.2221 7.7097C91.0505 7.53474 90.8107 7.44726 90.5027 7.44726C90.1947 7.44726 89.9524 7.53474 89.7756 7.7097C89.604 7.88466 89.5182 8.1396 89.5182 8.47452V9.61426C89.5182 9.94918 89.604 10.2041 89.7756 10.3791C89.9524 10.554 90.1947 10.6415 90.5027 10.6415Z" fill="black"/>
<path d="M93.5063 12.4561V6.98237H94.1046V7.7097H94.2636L94.0819 7.95714C94.0819 7.63222 94.1879 7.37728 94.4 7.19232C94.6171 7.00236 94.9023 6.90739 95.2557 6.90739C95.6748 6.90739 96.008 7.04485 96.2554 7.31979C96.5078 7.58973 96.6341 7.95964 96.6341 8.42953V9.65175C96.6341 9.96668 96.576 10.2391 96.4599 10.4691C96.3438 10.694 96.1822 10.869 95.9752 10.9939C95.7732 11.1189 95.5334 11.1814 95.2557 11.1814C94.9074 11.1814 94.6246 11.0864 94.4075 10.8965C94.1904 10.7065 94.0819 10.4516 94.0819 10.1316L94.2409 10.3791H94.097L94.1046 11.2189V12.4561H93.5063ZM95.0664 10.664C95.3693 10.664 95.6041 10.574 95.7707 10.3941C95.9424 10.2141 96.0282 9.95918 96.0282 9.62925V8.45953C96.0282 8.1246 95.9424 7.86966 95.7707 7.6947C95.6041 7.51474 95.3693 7.42477 95.0664 7.42477C94.7736 7.42477 94.5388 7.51724 94.3621 7.7022C94.1904 7.88216 94.1046 8.1346 94.1046 8.45953V9.62925C94.1046 9.95418 94.1904 10.2091 94.3621 10.3941C94.5388 10.574 94.7736 10.664 95.0664 10.664Z" fill="black"/>
<path d="M97.9186 11.1064V6.98237H98.7516L99.3575 8.66198C99.408 8.80694 99.4559 8.95441 99.5014 9.10438C99.5468 9.25434 99.5796 9.37181 99.5998 9.45679C99.6251 9.37181 99.6579 9.25434 99.6983 9.10438C99.7437 8.95441 99.7917 8.80445 99.8422 8.65448L100.425 6.98237H101.251V11.1064H100.668V10.1166C100.668 9.90169 100.67 9.67174 100.675 9.4268C100.68 9.18186 100.685 8.93691 100.69 8.69197C100.695 8.44703 100.703 8.21708 100.713 8.00213C100.723 7.78218 100.731 7.58973 100.736 7.42477L99.9103 9.8692H99.2742L98.4487 7.43976C98.4588 7.63972 98.4664 7.89216 98.4714 8.19709C98.4765 8.49702 98.4815 8.81444 98.4866 9.14937C98.4967 9.48429 98.5017 9.80671 98.5017 10.1166V11.1064H97.9186Z" fill="black"/>
<path d="M103.8 11.1814C103.361 11.1814 103.015 11.0714 102.763 10.8515C102.51 10.6265 102.384 10.3241 102.384 9.94418C102.384 9.56927 102.508 9.27434 102.755 9.05939C103.002 8.83944 103.336 8.72946 103.755 8.72946H105.08V8.29456C105.08 8.01963 104.999 7.80718 104.838 7.65721C104.676 7.50725 104.446 7.43226 104.148 7.43226C103.886 7.43226 103.666 7.48975 103.49 7.60472C103.318 7.7197 103.219 7.87466 103.194 8.06962H102.588C102.639 7.7147 102.805 7.43226 103.088 7.22231C103.376 7.01236 103.734 6.90739 104.164 6.90739C104.628 6.90739 104.997 7.03236 105.269 7.2823C105.542 7.52724 105.678 7.85966 105.678 8.27957V11.1064H105.087V10.3041H104.989L105.103 10.1841C105.103 10.4891 104.984 10.7315 104.747 10.9115C104.509 11.0914 104.194 11.1814 103.8 11.1814ZM103.944 10.7015C104.277 10.7015 104.55 10.619 104.762 10.4541C104.974 10.2891 105.08 10.0742 105.08 9.80921V9.18686H103.762C103.525 9.18686 103.336 9.25184 103.194 9.38181C103.053 9.51178 102.982 9.68924 102.982 9.91419C102.982 10.1541 103.068 10.3466 103.24 10.4916C103.411 10.6315 103.646 10.7015 103.944 10.7015Z" fill="black"/>
<path d="M110.098 12.1562V11.1064H107.137V6.98237H107.743V10.574H109.469V6.98237H110.068V10.574H110.643V12.1562H110.098Z" fill="black"/>
<path d="M111.678 11.1064V6.98237H112.261V9.32932C112.261 9.46929 112.256 9.61926 112.246 9.77922C112.241 9.93418 112.233 10.0816 112.223 10.2216C112.213 10.3616 112.203 10.4791 112.193 10.574L113.957 6.98237H114.737V11.1064H114.154V8.75946C114.154 8.61449 114.157 8.46452 114.162 8.30956C114.172 8.1546 114.182 8.00713 114.192 7.86716C114.207 7.7222 114.217 7.60222 114.223 7.50725L112.45 11.1064H111.678Z" fill="black"/>
<path d="M117.749 11.1739C117.426 11.1739 117.145 11.1114 116.908 10.9864C116.671 10.8615 116.486 10.6815 116.355 10.4466C116.224 10.2116 116.158 9.93418 116.158 9.61426V8.47452C116.158 8.1496 116.224 7.87216 116.355 7.64221C116.486 7.40727 116.671 7.22731 116.908 7.10234C117.145 6.97737 117.426 6.91488 117.749 6.91488C118.072 6.91488 118.352 6.97737 118.589 7.10234C118.827 7.22731 119.011 7.40727 119.142 7.64221C119.273 7.87216 119.339 8.1471 119.339 8.46702V9.61426C119.339 9.93418 119.273 10.2116 119.142 10.4466C119.011 10.6815 118.827 10.8615 118.589 10.9864C118.352 11.1114 118.072 11.1739 117.749 11.1739ZM117.749 10.6415C118.062 10.6415 118.304 10.554 118.476 10.3791C118.647 10.2041 118.733 9.94918 118.733 9.61426V8.47452C118.733 8.1396 118.645 7.88466 118.468 7.7097C118.297 7.53474 118.057 7.44726 117.749 7.44726C117.441 7.44726 117.198 7.53474 117.022 7.7097C116.85 7.88466 116.764 8.1396 116.764 8.47452V9.61426C116.764 9.94918 116.85 10.2041 117.022 10.3791C117.198 10.554 117.441 10.6415 117.749 10.6415Z" fill="black"/>
<path d="M120.76 11.1064V6.98237H121.366V8.73696H123.214V6.98237H123.82V11.1064H123.214V9.27684H121.366V11.1064H120.76Z" fill="black"/>
<path d="M125.301 11.1064V6.98237H125.907V8.73696H127.755V6.98237H128.361V11.1064H127.755V9.27684H125.907V11.1064H125.301Z" fill="black"/>
<path d="M129.622 11.1064V6.98237H130.19V8.51201H130.561C131.006 8.51201 131.357 8.62949 131.614 8.86443C131.877 9.09438 132.008 9.40931 132.008 9.80921C132.008 10.2091 131.879 10.5265 131.622 10.7615C131.364 10.9914 131.011 11.1064 130.561 11.1064H129.622ZM130.19 10.619H130.561C130.844 10.619 131.064 10.549 131.22 10.4091C131.382 10.2641 131.463 10.0642 131.463 9.80921C131.463 9.55427 131.382 9.35682 131.22 9.21685C131.064 9.07188 130.844 8.9994 130.561 8.9994H130.19V10.619ZM132.553 11.1064V6.98237H133.121V11.1064H132.553Z" fill="black"/>
<path d="M134.383 11.1064V6.98237H134.966V9.32932C134.966 9.46929 134.961 9.61926 134.951 9.77922C134.946 9.93418 134.938 10.0816 134.928 10.2216C134.918 10.3616 134.908 10.4791 134.898 10.574L136.662 6.98237H137.443V11.1064H136.859V8.75946C136.859 8.61449 136.862 8.46452 136.867 8.30956C136.877 8.1546 136.887 8.00713 136.897 7.86716C136.912 7.7222 136.922 7.60222 136.928 7.50725L135.155 11.1064H134.383ZM135.943 6.30003C135.585 6.30003 135.297 6.20255 135.08 6.00759C134.868 5.80764 134.762 5.5452 134.762 5.22028H135.246C135.246 5.42523 135.307 5.59019 135.428 5.71516C135.554 5.84013 135.723 5.90262 135.935 5.90262C136.153 5.90262 136.324 5.84013 136.45 5.71516C136.577 5.59019 136.64 5.42523 136.64 5.22028H137.124C137.124 5.5452 137.016 5.80764 136.799 6.00759C136.587 6.20255 136.301 6.30003 135.943 6.30003Z" fill="black"/>
<path d="M75.3499 18.6047V14.4806H78.4095V18.6047H77.8036V15.0205H75.9557V18.6047H75.3499Z" fill="black"/>
<path d="M81.4207 18.6722C81.0975 18.6722 80.8173 18.6097 80.58 18.4847C80.3427 18.3597 80.1585 18.1798 80.0272 17.9448C79.8959 17.7099 79.8303 17.4324 79.8303 17.1125V15.9728C79.8303 15.6479 79.8959 15.3704 80.0272 15.1405C80.1585 14.9055 80.3427 14.7256 80.58 14.6006C80.8173 14.4756 81.0975 14.4131 81.4207 14.4131C81.7438 14.4131 82.024 14.4756 82.2613 14.6006C82.4986 14.7256 82.6829 14.9055 82.8142 15.1405C82.9454 15.3704 83.0111 15.6454 83.0111 15.9653V17.1125C83.0111 17.4324 82.9454 17.7099 82.8142 17.9448C82.6829 18.1798 82.4986 18.3597 82.2613 18.4847C82.024 18.6097 81.7438 18.6722 81.4207 18.6722ZM81.4207 18.1398C81.7337 18.1398 81.976 18.0523 82.1477 17.8773C82.3194 17.7024 82.4052 17.4474 82.4052 17.1125V15.9728C82.4052 15.6379 82.3168 15.3829 82.1401 15.208C81.9685 15.033 81.7287 14.9455 81.4207 14.9455C81.1127 14.9455 80.8703 15.033 80.6936 15.208C80.522 15.3829 80.4361 15.6379 80.4361 15.9728V17.1125C80.4361 17.4474 80.522 17.7024 80.6936 17.8773C80.8703 18.0523 81.1127 18.1398 81.4207 18.1398Z" fill="black"/>
<path d="M84.4243 19.9544V14.4806H85.0226V15.208H85.1816L84.9999 15.4554C84.9999 15.1305 85.1059 14.8755 85.3179 14.6906C85.535 14.5006 85.8203 14.4056 86.1737 14.4056C86.5928 14.4056 86.926 14.5431 87.1734 14.8181C87.4258 15.088 87.5521 15.4579 87.5521 15.9278V17.15C87.5521 17.4649 87.494 17.7374 87.3779 17.9673C87.2618 18.1923 87.1002 18.3672 86.8932 18.4922C86.6912 18.6172 86.4514 18.6797 86.1737 18.6797C85.8254 18.6797 85.5426 18.5847 85.3255 18.3947C85.1084 18.2048 84.9999 17.9498 84.9999 17.6299L85.1589 17.8773H85.015L85.0226 18.7171V19.9544H84.4243ZM85.9844 18.1623C86.2873 18.1623 86.5221 18.0723 86.6887 17.8923C86.8604 17.7124 86.9462 17.4574 86.9462 17.1275V15.9578C86.9462 15.6229 86.8604 15.3679 86.6887 15.193C86.5221 15.013 86.2873 14.923 85.9844 14.923C85.6916 14.923 85.4568 15.0155 85.2801 15.2005C85.1084 15.3804 85.0226 15.6329 85.0226 15.9578V17.1275C85.0226 17.4524 85.1084 17.7074 85.2801 17.8923C85.4568 18.0723 85.6916 18.1623 85.9844 18.1623Z" fill="black"/>
<path d="M90.1997 18.6047V15.013H88.6851V14.4806H92.3203V15.013H90.8056V18.6047H90.1997Z" fill="black"/>
<path d="M94.718 18.6797C94.2788 18.6797 93.9329 18.5697 93.6805 18.3497C93.4281 18.1248 93.3018 17.8224 93.3018 17.4424C93.3018 17.0675 93.4255 16.7726 93.6729 16.5576C93.9203 16.3377 94.2535 16.2277 94.6726 16.2277H95.9979V15.7928C95.9979 15.5179 95.9171 15.3054 95.7556 15.1555C95.594 15.0055 95.3643 14.9305 95.0664 14.9305C94.8039 14.9305 94.5842 14.988 94.4075 15.103C94.2359 15.218 94.1374 15.3729 94.1122 15.5679H93.5063C93.5568 15.213 93.7234 14.9305 94.0061 14.7206C94.2939 14.5106 94.6524 14.4056 95.0816 14.4056C95.546 14.4056 95.9146 14.5306 96.1872 14.7806C96.4599 15.0255 96.5962 15.3579 96.5962 15.7778V18.6047H96.0055V17.8024H95.907L96.0206 17.6824C96.0206 17.9873 95.902 18.2298 95.6647 18.4097C95.4274 18.5897 95.1118 18.6797 94.718 18.6797ZM94.8619 18.1998C95.1951 18.1998 95.4678 18.1173 95.6798 17.9523C95.8919 17.7874 95.9979 17.5724 95.9979 17.3075V16.6851H94.6802C94.4429 16.6851 94.2535 16.7501 94.1122 16.8801C93.9708 17.01 93.9001 17.1875 93.9001 17.4125C93.9001 17.6524 93.986 17.8449 94.1576 17.9898C94.3293 18.1298 94.564 18.1998 94.8619 18.1998Z" fill="black"/>
<path d="M97.5248 18.6572V18.0948H97.6762C97.8933 18.0948 98.0524 18.0073 98.1533 17.8324C98.2543 17.6524 98.3073 17.355 98.3124 16.9401L98.3654 14.4806H101.114V18.6047H100.509V15.0205H98.9561L98.9107 16.9626C98.9056 17.3525 98.8577 17.6724 98.7668 17.9223C98.6809 18.1723 98.5497 18.3572 98.373 18.4772C98.2013 18.5972 97.9766 18.6572 97.6989 18.6572H97.5248Z" fill="black"/>
</g>
</g>
</svg>
