<svg width="146" height="30" viewBox="0 0 146 30" fill="none" xmlns="http://www.w3.org/2000/svg">
<g id="logo 3">
<path id="Vector" d="M9.14238 24.49C8.92047 24.3265 8.75695 24.1047 8.67519 23.8479C8.5876 23.5911 8.5876 23.3109 8.66935 23.0541L8.94383 21.9451C8.99055 21.7524 9.07815 21.5656 9.20078 21.408C9.32342 21.2505 9.4811 21.1162 9.65629 21.0228L10.544 20.5617C11.0871 20.2815 11.5192 19.8262 11.7762 19.2659C12.0331 18.7114 12.0974 18.0868 11.9572 17.4914L11.9455 17.4331C11.782 16.7677 11.3732 16.184 10.8068 15.7987C10.2344 15.4193 9.5395 15.2617 8.85623 15.3609L7.86929 15.501C7.6649 15.5302 7.4605 15.5127 7.26778 15.4602C7.06923 15.4018 6.88819 15.3084 6.73635 15.1742L5.86037 14.4387C5.6443 14.2753 5.48662 14.0535 5.39902 13.7966C5.31726 13.5398 5.31726 13.2596 5.39902 13.0028C5.5859 12.4366 5.58006 11.8179 5.3815 11.2517C5.18879 10.6855 4.81503 10.2011 4.3128 9.86251C3.81641 9.5298 3.22075 9.36637 2.61924 9.39555C2.01773 9.43058 1.44542 9.65822 0.984072 10.0435C0.528562 10.4287 0.207368 10.9482 0.0730511 11.5319C-0.067106 12.1156 -0.00286736 12.7285 0.242408 13.2771C0.487683 13.8258 0.902314 14.2753 1.4279 14.5671C1.95349 14.8531 2.56084 14.964 3.15651 14.8823C3.25579 14.8648 3.34922 14.8473 3.44266 14.8239L3.69962 14.7772C3.91569 14.7305 4.13177 14.7422 4.342 14.7948C4.55224 14.8473 4.75079 14.9524 4.91431 15.0924L6.09981 16.1139C6.28084 16.2773 6.421 16.4758 6.50276 16.7034C6.59036 16.9253 6.61372 17.1704 6.57868 17.4097L6.54948 17.5907L6.52028 17.7483V17.7599C6.48524 18.0868 6.50276 18.4195 6.58452 18.7406C6.58452 18.7639 6.58452 18.7814 6.5962 18.7989V18.8164C6.71299 19.2542 6.93491 19.6511 7.23858 19.9838C7.27946 20.0247 7.3145 20.0597 7.35538 20.0947L7.48386 20.2231C7.65322 20.3983 7.77585 20.6084 7.84593 20.8419C7.91017 21.0753 7.91601 21.3263 7.85761 21.5598L7.49554 23.0774C7.44882 23.2876 7.34954 23.486 7.20938 23.6494C7.07507 23.8187 6.89987 23.953 6.70131 24.0405L6.4794 24.1456C6.3918 24.1806 6.29836 24.2215 6.21661 24.2682C5.80781 24.4783 5.46326 24.7877 5.21215 25.1671C4.79167 25.7683 4.62816 26.5096 4.75664 27.2275C4.88511 27.9455 5.29974 28.5875 5.90125 29.002C6.50276 29.4222 7.24442 29.5857 7.96857 29.4572C8.68687 29.3288 9.32926 28.9202 9.74973 28.319C9.99501 27.9805 10.1644 27.5894 10.2344 27.175C10.252 27.0816 10.2695 26.9882 10.2753 26.8948L10.3045 26.6497C10.287 26.2294 10.176 25.8091 9.97165 25.4356C9.77309 25.062 9.48694 24.7351 9.14238 24.49Z" fill="#C8C9CA"/>
<path id="Vector_2" d="M30.271 11.3042C30.125 10.8606 29.868 10.4579 29.5235 10.1427C29.1848 9.82165 28.7643 9.59401 28.3088 9.48311C27.8533 9.3722 27.3744 9.3722 26.9247 9.49478C26.4692 9.61736 26.0546 9.85083 25.7159 10.1777C25.6458 10.2419 25.5757 10.3061 25.5115 10.382L25.3421 10.5571C25.1961 10.7205 25.0151 10.8431 24.8165 10.919C24.6121 11.0007 24.3961 11.0357 24.18 11.0182L22.6149 10.8898C22.3755 10.8723 22.1419 10.7906 21.9375 10.6563C21.7331 10.5162 21.5696 10.3353 21.4586 10.1193L21.3768 9.9559C21.3535 9.90921 21.3301 9.86251 21.3009 9.81581V9.80414C21.1374 9.51229 20.9272 9.25546 20.6702 9.04533L20.6293 9.01031L20.6118 8.9928C20.2614 8.70679 19.8468 8.51417 19.403 8.42661H19.3913L19.2336 8.39743L19.0467 8.38575C18.8073 8.3449 18.5795 8.24567 18.3927 8.09974C18.1999 7.94798 18.0481 7.74952 17.9547 7.52772L17.3532 6.09766C17.2656 5.89337 17.2305 5.6774 17.2422 5.46143C17.2539 5.24546 17.3181 5.03533 17.4232 4.84855L17.5459 4.64425C17.5984 4.5567 17.6452 4.47498 17.686 4.38743C17.8729 4.01386 17.9722 3.59943 17.9722 3.17917C17.9488 2.46122 17.651 1.7783 17.1312 1.27632C16.6173 0.780175 15.9224 0.5 15.2041 0.5C14.4799 0.5 13.7908 0.780175 13.2711 1.27632C12.7572 1.7783 12.4535 2.46122 12.436 3.17917C12.436 3.59943 12.5294 4.01386 12.7163 4.38743C12.763 4.47498 12.8097 4.5567 12.8623 4.64425L12.9791 4.84855C13.09 5.03533 13.1484 5.24546 13.1601 5.46143C13.1776 5.6774 13.1368 5.89337 13.055 6.09766L12.4535 7.52772C12.3601 7.74952 12.2082 7.94798 12.0213 8.09391C11.8286 8.24567 11.6067 8.3449 11.3673 8.38575L11.1862 8.41494L11.0286 8.43829H11.011C10.684 8.50249 10.3745 8.63091 10.0942 8.80602L10.0533 8.82936C10.0416 8.8352 10.0358 8.84104 10.0299 8.84688C9.65036 9.09203 9.335 9.42474 9.11309 9.82165V9.83332C9.08973 9.88002 9.06637 9.92671 9.04301 9.97341C7.92175 12.3724 10.3745 13.7032 10.684 13.785C11.0636 13.9017 11.4607 13.9367 11.8578 13.89C12.2491 13.8433 12.6287 13.7207 12.9732 13.5223L13.0258 13.4931C13.6098 13.1312 14.0361 12.565 14.223 11.8996C14.4099 11.24 14.3456 10.5338 14.0361 9.92088L13.5864 9.02198C13.4988 8.84104 13.4463 8.64258 13.4404 8.43829C13.4346 8.23399 13.4696 8.03554 13.5456 7.84875L13.9719 6.79226C14.0595 6.53543 14.223 6.31363 14.4449 6.15603C14.661 5.99843 14.9296 5.91671 15.1982 5.91671C15.4669 5.91671 15.7297 5.99843 15.9516 6.15603C16.1735 6.31363 16.337 6.53543 16.4246 6.79226L16.8568 7.84875C16.9327 8.03554 16.9736 8.23399 16.9619 8.43829C16.956 8.64258 16.9093 8.84104 16.8159 9.02198L16.3779 9.91504C16.1034 10.4637 16.0217 11.0883 16.1443 11.6895C16.2669 12.2907 16.5881 12.8335 17.0553 13.2304L17.0962 13.2713C17.4583 13.5748 17.8846 13.7791 18.3459 13.8667C18.8073 13.9542 19.2862 13.925 19.73 13.785C20.1388 13.6507 20.5125 13.4289 20.8162 13.1254L21.5345 12.4308C21.6805 12.2907 21.8557 12.1798 22.0426 12.1039C22.2353 12.0339 22.4397 12.0047 22.6441 12.0222L23.7829 12.1097C24.0573 12.1097 24.3201 12.1973 24.5362 12.3549C24.7523 12.5183 24.9158 12.7401 25.0034 12.997C25.1786 13.5281 25.6224 14.5613 27.2342 14.8706C27.7014 14.9348 28.1745 14.8823 28.6124 14.713C29.0504 14.5496 29.4417 14.2694 29.7454 13.9134C30.0432 13.5573 30.2535 13.1254 30.3411 12.6701C30.4286 12.209 30.3995 11.7362 30.2593 11.2867L30.271 11.3042Z" fill="#EC1D35"/>
<path id="Vector_3" d="M20.2849 15.466C19.9111 15.5944 19.5666 15.7987 19.2746 16.0672C18.9826 16.3357 18.749 16.6567 18.5913 17.0186C18.5913 17.0361 18.5738 17.0537 18.568 17.077C18.311 17.7132 18.2993 18.4195 18.5388 19.0616C18.7782 19.7036 19.2512 20.2406 19.8586 20.5558L20.7462 21.017C20.9214 21.1104 21.0791 21.2446 21.2076 21.4022C21.3302 21.5598 21.4178 21.7466 21.4704 21.945L21.739 23.0541C21.8208 23.3109 21.8208 23.5852 21.739 23.8421C21.6514 24.0989 21.4879 24.3265 21.2718 24.4841C21.0499 24.6417 20.7871 24.7293 20.5126 24.7293C20.244 24.7293 19.9812 24.6417 19.7593 24.4841L18.784 23.8888C18.6088 23.7837 18.4628 23.6436 18.3461 23.4743C18.2293 23.3109 18.1533 23.1183 18.1183 22.9198L17.9489 21.9392C17.8497 21.338 17.546 20.7835 17.0963 20.3632C16.6408 19.9488 16.0627 19.6978 15.4495 19.6453H15.3911C14.702 19.5986 14.0187 19.8029 13.4814 20.229C12.9383 20.6551 12.5762 21.268 12.4653 21.945C12.074 24.274 14.1764 25.0386 14.994 25.1379H15.0699C15.5195 25.1671 15.9692 25.0795 16.378 24.8927H16.3955L16.5415 24.8227L16.6992 24.741C16.9211 24.6301 17.1606 24.5775 17.4058 24.5892C17.6453 24.595 17.8847 24.6651 18.0949 24.7935L19.4323 25.6107C19.6133 25.7216 19.771 25.8792 19.8878 26.0601C20.0046 26.2411 20.0805 26.4512 20.1039 26.6613L20.1331 26.9065C20.1389 26.9999 20.1506 27.0991 20.1681 27.1925C20.2499 27.6536 20.4484 28.0914 20.7404 28.4533C21.0382 28.8152 21.4178 29.1012 21.8558 29.2763C22.288 29.4514 22.7668 29.5156 23.2282 29.4572C23.6954 29.4047 24.1392 29.2296 24.5246 28.9553C24.9042 28.6809 25.2079 28.3132 25.4065 27.8871C25.605 27.461 25.6868 26.994 25.6576 26.5271C25.6225 26.0601 25.4707 25.6107 25.2138 25.2196C24.9568 24.8227 24.6064 24.5016 24.1918 24.2857C24.1042 24.239 24.0166 24.1981 23.9231 24.1631L23.7012 24.0639C23.5027 23.9705 23.3333 23.8362 23.1932 23.6728C23.053 23.5035 22.9596 23.3051 22.907 23.0949L22.5449 21.5773C22.4924 21.3438 22.4982 21.0987 22.5624 20.8652C22.6267 20.6317 22.7493 20.4158 22.9245 20.2465L23.053 20.1122C23.088 20.0772 23.1289 20.0422 23.164 20.0013V19.9897C23.3917 19.7445 23.5727 19.4643 23.6954 19.1608L23.7129 19.1141V19.0908C23.8764 18.6705 23.9348 18.2152 23.8823 17.7716V17.7541C23.5143 15.0866 20.8806 15.2442 20.2849 15.466Z" fill="#402FFF"/>
<path id="Vector_4" d="M43.481 24.9745V22.7973H40.8063C40.1989 22.7856 39.6033 22.6105 39.0835 22.3011C38.5054 21.9626 37.4892 20.8419 37.1739 20.3983C36.8644 19.9196 36.7067 19.3535 36.7301 18.7873V10.9424C36.7067 10.3587 36.8644 9.79248 37.1739 9.30218C37.4892 8.89359 38.5054 7.76705 39.0835 7.42267C39.6033 7.11331 40.1989 6.94404 40.8063 6.93237H43.481V4.81938H46.3834V6.92653H48.988C49.5953 6.94404 50.191 7.11331 50.7166 7.42267C51.2889 7.76122 52.2875 8.88192 52.6262 9.29634C52.9357 9.78665 53.0934 10.3587 53.07 10.9365V18.7814C53.0876 19.3535 52.9357 19.9138 52.6262 20.3983C52.2875 20.8419 51.2889 21.9626 50.7166 22.2953C50.191 22.6046 49.5953 22.7739 48.988 22.7914H46.3834V24.9686L43.481 24.9745ZM40.8705 19.7504H43.481V9.97343H40.8997C40.5318 10.2594 40.2048 10.5922 39.9303 10.9657V18.7873C40.1989 19.1492 40.5143 19.476 40.8705 19.7504ZM49.8815 10.9482C49.6303 10.5688 49.3092 10.2419 48.9354 9.97927H46.3834V19.7562H48.912C49.2683 19.4702 49.5895 19.1433 49.8815 18.7931V10.9482Z" fill="#1B1C21"/>
<path id="Vector_5" d="M66.8987 11.6194C66.6126 10.9424 66.1278 10.3762 65.5088 9.97925H60.8661C60.469 10.2711 60.1245 10.6272 59.8383 11.0241V18.7872C60.1011 19.1842 60.4515 19.5169 60.8661 19.7503H65.5614C66.1279 19.3418 66.5834 18.8106 66.8987 18.1919L69.8771 18.9215C69.661 19.5169 69.3631 20.0772 68.9894 20.585C68.3587 21.4723 67.1382 22.8031 65.538 22.8031H60.7318C60.1245 22.7856 59.5288 22.6163 59.009 22.3069C58.4601 21.9684 57.4615 20.9236 57.0994 20.4333C56.8016 19.943 56.6497 19.3826 56.6497 18.8164V10.9132C56.6264 10.3411 56.784 9.77496 57.0994 9.29633C57.4089 8.88774 58.4309 7.78455 59.0324 7.42266C59.5521 7.12497 60.1361 6.9557 60.7318 6.92651H65.538C67.1323 6.92651 68.3412 8.25734 68.966 9.11538C69.3339 9.6232 69.6376 10.1835 69.8537 10.7731L66.8987 11.6194Z" fill="#1B1C21"/>
<path id="Vector_6" d="M82.8416 22.6688V10.0785H76.2308V22.6688H73.0422V7.90712C73.0422 7.67948 73.1357 7.45768 73.2992 7.29424C73.4627 7.13081 73.6846 7.04325 73.9182 7.03741H85.16C85.3936 7.04325 85.6155 7.13081 85.779 7.29424C85.9425 7.45768 86.0301 7.67948 86.036 7.90712V22.6805L82.8416 22.6688Z" fill="#1B1C21"/>
<g id="&#208;&#152;&#208;&#157;&#208;&#164;&#208;&#158;">
<path d="M93.4412 23.2972V7.21803H96.0296V15.0814C96.0296 15.5954 96.0144 16.1681 95.9842 16.7995C95.9539 17.4309 95.916 18.0476 95.8706 18.6497C95.8252 19.2517 95.7874 19.773 95.7571 20.2136L100.321 7.21803H103.795V23.2972H101.206V15.6761C101.206 15.1622 101.222 14.5748 101.252 13.914C101.282 13.2532 101.32 12.5998 101.365 11.9537C101.426 11.3076 101.479 10.7569 101.524 10.3017L96.9151 23.2972H93.4412Z" fill="black"/>
<path d="M107.623 23.2972V7.21803H110.461V13.6717H114.912V7.21803H117.75V23.2972H114.912V16.2268H110.461V23.2972H107.623Z" fill="black"/>
<path d="M125.551 23.8479V22.3061C124.628 22.3061 123.811 22.1078 123.099 21.7113C122.388 21.3149 121.835 20.7642 121.442 20.0594C121.048 19.3545 120.851 18.5322 120.851 17.5924V12.6585C120.851 11.6894 121.048 10.8524 121.442 10.1475C121.835 9.428 122.38 8.87 123.077 8.47353C123.788 8.07705 124.613 7.87882 125.551 7.87882V6.33698H127.958V7.87882C128.897 7.87882 129.714 8.07705 130.41 8.47353C131.122 8.87 131.674 9.428 132.068 10.1475C132.461 10.8524 132.658 11.6894 132.658 12.6585V17.5924C132.658 18.5322 132.461 19.3545 132.068 20.0594C131.674 20.7642 131.122 21.3149 130.41 21.7113C129.714 22.1078 128.897 22.3061 127.958 22.3061V23.8479H125.551ZM125.642 20.1255V10.0594C125.173 10.0594 124.764 10.1696 124.416 10.3898C124.068 10.5954 123.796 10.8964 123.599 11.2929C123.417 11.6747 123.326 12.1299 123.326 12.6585V17.5924C123.326 18.1064 123.417 18.5542 123.599 18.936C123.796 19.3031 124.068 19.5968 124.416 19.8171C124.764 20.0227 125.173 20.1255 125.642 20.1255ZM127.867 20.1255C128.352 20.1255 128.76 20.0227 129.093 19.8171C129.442 19.5968 129.707 19.3031 129.888 18.936C130.085 18.5542 130.183 18.1064 130.183 17.5924V12.6585C130.183 12.1299 130.085 11.6747 129.888 11.2929C129.707 10.8964 129.442 10.5954 129.093 10.3898C128.76 10.1696 128.352 10.0594 127.867 10.0594V20.1255Z" fill="black"/>
<path d="M140.823 23.5175C139.764 23.5175 138.84 23.3266 138.053 22.9448C137.281 22.5483 136.683 21.9977 136.26 21.2928C135.851 20.5733 135.646 19.729 135.646 18.7598V11.7555C135.646 10.7863 135.851 9.94929 136.26 9.24445C136.683 8.52492 137.281 7.97427 138.053 7.59248C138.84 7.196 139.764 6.99777 140.823 6.99777C141.898 6.99777 142.821 7.196 143.593 7.59248C144.365 7.97427 144.956 8.52492 145.364 9.24445C145.788 9.94929 146 10.779 146 11.7334V18.7598C146 19.729 145.788 20.5733 145.364 21.2928C144.956 21.9977 144.365 22.5483 143.593 22.9448C142.821 23.3266 141.898 23.5175 140.823 23.5175ZM140.823 21.0946C141.595 21.0946 142.178 20.8964 142.572 20.4999C142.965 20.0887 143.162 19.5087 143.162 18.7598V11.7555C143.162 10.9919 142.965 10.4118 142.572 10.0154C142.178 9.6189 141.595 9.42066 140.823 9.42066C140.051 9.42066 139.469 9.6189 139.075 10.0154C138.681 10.4118 138.485 10.9919 138.485 11.7555V18.7598C138.485 19.5087 138.681 20.0887 139.075 20.4999C139.484 20.8964 140.066 21.0946 140.823 21.0946Z" fill="black"/>
</g>
</g>
</svg>
